<svg width="656" height="748" viewBox="0 0 656 748" fill="none" xmlns="http://www.w3.org/2000/svg">
<path fill-rule="evenodd" clip-rule="evenodd" d="M486.723 747.503H169.456C143.513 747.503 118.841 718.42 114.363 682.524L56.4826 195.618H599.696L541.816 682.524C537.337 718.41 512.665 747.503 486.723 747.503ZM311.696 658.227C311.696 667.191 319.035 674.462 328.081 674.462C337.128 674.462 344.467 667.191 344.467 658.227V284.894C344.467 275.93 337.128 268.664 328.081 268.664C319.035 268.664 311.696 275.93 311.696 284.894V658.227ZM426.951 654.857C425.852 663.758 432.237 671.857 441.216 672.945C450.2 674.039 458.377 667.711 459.476 658.815L505.403 288.268C506.507 279.372 500.121 271.273 491.137 270.18C482.158 269.086 473.981 275.414 472.877 284.311L426.951 654.857ZM196.684 658.816C197.783 667.712 205.96 674.04 214.944 672.946C223.923 671.858 230.308 663.759 229.209 654.858L183.283 284.312C182.178 275.416 174.001 269.088 165.023 270.181C156.038 271.275 149.653 279.374 150.757 288.269L196.684 658.816ZM166.277 98.229H33.1C14.9853 98.229 0.375977 112.765 0.375977 130.693C0.375977 148.589 15.0266 163.157 33.1 163.157H623.06C641.175 163.157 655.784 148.626 655.784 130.693C655.784 112.802 641.133 98.229 623.06 98.229H489.883V65.6931C489.883 29.833 460.497 0.838379 424.299 0.838379H231.859C195.604 0.838379 166.275 29.833 166.275 65.6931L166.277 98.229ZM231.819 98.229H424.339C424.339 86.9634 424.333 65.765 424.292 65.765C424.292 65.765 231.812 65.7182 231.812 65.6921L231.819 98.229Z" fill="white"/>
</svg>
